<svg width="50" height="50" viewBox="0 0 50 50" fill="none" xmlns="http://www.w3.org/2000/svg">
<path d="M49.057 22.7722L27.2266 0.94292C25.9701 -0.314307 23.9311 -0.314307 22.673 0.94292L18.1398 5.47612L23.8904 11.2267C25.2268 10.7751 26.7592 11.0781 27.8244 12.1433C28.8947 13.2154 29.1955 14.7609 28.733 16.1015L34.275 21.6437C35.6158 21.1818 37.1629 21.4806 38.2338 22.5533C39.7305 24.0494 39.7305 26.4742 38.2338 27.9712C36.7367 29.4685 34.3119 29.4685 32.8141 27.9712C31.6883 26.8443 31.4102 25.191 31.9801 23.8041L26.8117 18.6357L26.8111 32.2367C27.1858 32.4219 27.528 32.6666 27.8244 32.9613C29.3211 34.4574 29.3211 36.8824 27.8244 38.3806C26.3273 39.8771 23.9014 39.8771 22.4064 38.3806C20.9098 36.8824 20.9098 34.4576 22.4064 32.9615C22.7651 32.6026 23.1914 32.3184 23.6605 32.1253V18.3976C23.1907 18.2058 22.7642 17.9214 22.4064 17.5615C21.2725 16.4291 20.9998 14.7652 21.5809 13.3728L15.9121 7.70347L0.943359 22.6712C-0.314453 23.9296 -0.314453 25.9689 0.943359 27.2263L22.7742 49.056C24.0311 50.3134 26.0697 50.3134 27.3281 49.056L49.0568 27.3277C50.3143 26.0699 50.3143 24.0294 49.0568 22.7722" fill="#DE4C36"/>
</svg>
