<svg width="67" height="50" viewBox="0 0 67 50" fill="none" xmlns="http://www.w3.org/2000/svg">
<g clip-path="url(#clip0)">
<path d="M57.3699 28.724C55.0391 28.7372 53.0209 29.2969 51.3282 30.1304C50.7032 28.8934 50.0782 27.8125 49.9742 27.0054C49.857 26.0679 49.7138 25.4948 49.857 24.3752C50.0001 23.2553 50.6511 21.6667 50.6511 21.5365C50.638 21.4193 50.5078 20.8464 49.1667 20.8334C47.8257 20.8204 46.6668 21.0938 46.5365 21.4454C46.4063 21.7969 46.1459 22.6042 45.9767 23.4375C45.7423 24.6615 43.2944 28.9974 41.9011 31.2761C41.4454 30.3907 41.0548 29.6094 40.9765 28.9843C40.8595 28.0469 40.7161 27.4739 40.8595 26.3542C41.0027 25.2343 41.6537 23.6459 41.6537 23.5157C41.6407 23.3985 41.5105 22.8256 40.1695 22.8125C38.8282 22.7995 37.6695 23.073 37.5393 23.4245C37.4091 23.7761 37.2659 24.6094 36.9794 25.4167C36.7058 26.224 33.4506 33.4636 32.6043 35.3516C32.1746 36.3152 31.7971 37.0834 31.5236 37.6042C31.2501 38.125 31.5105 37.6433 31.4845 37.6954C31.2501 38.1381 31.1199 38.3855 31.1199 38.3855V38.3986C30.9376 38.7241 30.7423 39.0365 30.651 39.0365C30.5859 39.0365 30.4557 38.1641 30.6771 36.9663C31.1588 34.4532 32.3307 30.534 32.3178 30.3908C32.3178 30.3257 32.539 29.6355 31.5625 29.284C30.612 28.9325 30.2736 29.5184 30.1953 29.5184C30.1172 29.5184 30.0521 29.7267 30.0521 29.7267C30.0521 29.7267 31.1068 25.3128 28.0338 25.3128C26.1068 25.3128 23.4505 27.4092 22.1354 29.3232C21.3021 29.7789 19.5313 30.7424 17.6563 31.7711C16.9401 32.1618 16.1979 32.5784 15.4948 32.956L15.3517 32.7995C11.6278 28.8282 4.73974 26.0157 5.0262 20.6771C5.13037 18.737 5.80745 13.6198 18.2555 7.42192C28.4508 2.34379 36.6148 3.73702 38.034 6.83598C40.0522 11.2631 33.672 19.4922 23.0732 20.6771C19.0367 21.1329 16.9142 19.5704 16.3805 18.9844C15.8206 18.3724 15.7425 18.3464 15.5341 18.4636C15.1956 18.6459 15.4039 19.1928 15.5341 19.5183C15.8466 20.3386 17.1487 21.7969 19.3622 22.5261C21.3022 23.1641 26.0419 23.5157 31.7711 21.3021C38.1903 18.8151 43.2033 11.9141 41.732 6.14588C40.2346 0.273481 30.495 -1.6536 21.2893 1.61463C15.8074 3.56775 9.86994 6.61463 5.59912 10.612C0.521 15.3516 -0.28629 19.4922 0.0522511 21.211C1.23728 27.3438 9.68765 31.3412 13.0731 34.2969C12.9038 34.3879 12.7475 34.4791 12.6043 34.5573C10.9116 35.3905 4.46631 38.7631 2.85173 42.3306C1.02881 46.3671 3.13818 49.2709 4.54443 49.6615C8.89338 50.8724 13.3465 48.698 15.7553 45.1172C18.151 41.5365 17.8647 36.8881 16.758 34.7657L16.7188 34.6875L18.0469 33.9063C18.9064 33.3985 19.7527 32.9297 20.4948 32.526C20.0783 33.6588 19.7786 34.9999 19.6225 36.953C19.4402 39.2448 20.3777 42.2135 21.6147 43.3853C22.1616 43.893 22.8126 43.9062 23.2163 43.9062C24.6486 43.9062 25.2996 42.7211 26.0157 41.302C26.9012 39.5702 27.6824 37.565 27.6824 37.565C27.6824 37.565 26.7059 42.9947 29.3751 42.9947C30.3517 42.9947 31.3282 41.7317 31.7709 41.0806V41.0937C31.7709 41.0937 31.797 41.0546 31.8491 40.9635C31.9037 40.8827 31.9558 40.8002 32.0053 40.7162V40.6902C32.3959 40.0131 33.2683 38.4636 34.5704 35.8985C36.25 32.5912 37.8647 28.4506 37.8647 28.4506C37.8647 28.4506 38.0209 29.4662 38.5027 31.1329C38.789 32.1226 39.414 33.2032 39.8958 34.2579C39.5052 34.8047 39.2708 35.1174 39.2708 35.1174L39.2838 35.1304C38.9715 35.5471 38.6198 35.9899 38.2553 36.4325C36.9272 38.021 35.3386 39.831 35.1303 40.3519C34.8829 40.9637 34.935 41.4194 35.4168 41.7842C35.7683 42.0446 36.3933 42.0965 37.0574 42.0446C38.2553 41.9663 39.0886 41.667 39.5053 41.4846C40.1563 41.2502 40.8985 40.8986 41.6147 40.3778C42.9168 39.4144 43.711 38.0472 43.6329 36.2243C43.5938 35.2217 43.2683 34.2321 42.8647 33.2946C42.9819 33.1253 43.0992 32.9559 43.2162 32.7737C45.2735 29.7658 46.8621 26.4586 46.8621 26.4586C46.8621 26.4586 47.0183 27.4743 47.5001 29.1409C47.7473 29.9873 48.2423 30.9119 48.685 31.8234C46.7579 33.3989 45.547 35.2218 45.1303 36.4197C44.3621 38.6333 44.961 39.6359 46.0938 39.8702C46.6015 39.9744 47.3308 39.74 47.8776 39.5056C48.5546 39.2843 49.375 38.9066 50.1303 38.3468C51.4324 37.3832 52.6824 36.0421 52.6173 34.2322C52.5782 33.3989 52.3568 32.5786 52.0574 31.7973C53.698 31.1202 55.8203 30.7296 58.5157 31.0551C64.3099 31.7322 65.4558 35.352 65.2346 36.8624C65.0132 38.373 63.8023 39.2062 63.3985 39.4666C62.9948 39.714 62.8646 39.8053 62.9037 39.9874C62.9558 40.261 63.1381 40.2478 63.4896 40.1959C63.9714 40.1176 66.5365 38.9589 66.6407 36.1726C66.7969 32.5913 63.3985 28.6851 57.3699 28.724V28.724ZM12.6824 43.7891C10.7684 45.8855 8.07307 46.6797 6.92724 46.0026C5.69026 45.2865 6.1719 42.2006 8.5288 39.974C9.96109 38.6198 11.8231 37.3698 13.047 36.6016C13.3205 36.4323 13.7371 36.1851 14.2319 35.8855C14.31 35.8335 14.3621 35.8073 14.3621 35.8073C14.4533 35.7553 14.5574 35.6902 14.6616 35.625C15.534 38.8021 14.7007 41.5886 12.6824 43.7891V43.7891ZM26.6798 34.2709C26.0157 35.8985 24.6095 40.0782 23.7631 39.8438C23.0339 39.6485 22.5913 36.4844 23.6198 33.3594C24.1406 31.7838 25.2474 29.9089 25.8984 29.1796C26.9532 28.0077 28.0989 27.6171 28.3855 28.0989C28.7241 28.724 27.0965 33.2553 26.6798 34.2709ZM38.2293 39.7917C37.9428 39.9351 37.6824 40.0391 37.5652 39.9611C37.4741 39.909 37.6823 39.7137 37.6823 39.7137C37.6823 39.7137 39.1276 38.1642 39.7005 37.4481C40.026 37.0316 40.4166 36.5498 40.8333 36.0028V36.159C40.8334 38.0339 39.0366 39.2839 38.2293 39.7917ZM47.1354 37.7605C46.927 37.6042 46.9532 37.1224 47.6562 35.612C47.9298 35.0131 48.5546 34.0105 49.6354 33.0599C49.7656 33.4506 49.8438 33.828 49.8307 34.1797C49.8178 36.5235 48.1511 37.3959 47.1354 37.7605Z" fill="#CF649A"/>
</g>
<defs>
<clipPath id="clip0">
<rect width="66.6667" height="50" fill="white"/>
</clipPath>
</defs>
</svg>
