<svg width="44" height="50" viewBox="0 0 44 50" fill="none" xmlns="http://www.w3.org/2000/svg">
<g clip-path="url(#clip0)">
<path d="M43.88 24.543C43.88 21.6361 40.2397 18.8813 34.6586 17.173C35.9465 11.4845 35.3741 6.95877 32.8519 5.50982C32.2705 5.16994 31.5907 5.00894 30.8484 5.00894V7.00349C31.2598 7.00349 31.5907 7.08399 31.868 7.23604C33.0844 7.93368 33.6121 10.5901 33.2007 14.0068C33.1023 14.8475 32.9413 15.733 32.7445 16.6363C30.9915 16.207 29.0774 15.8761 27.065 15.6614C25.8575 14.0068 24.6054 12.5041 23.3442 11.1894C26.26 8.47927 28.9969 6.99455 30.8573 6.99455V5C28.3977 5 25.1778 6.75305 21.9221 9.79406C18.6664 6.77094 15.4465 5.03578 12.9869 5.03578V7.03032C14.8383 7.03032 17.5842 8.50611 20.5 11.1983C19.2478 12.5131 17.9956 14.0068 16.8061 15.6614C14.7847 15.8761 12.8706 16.207 11.1176 16.6453C10.9119 15.7509 10.7598 14.8833 10.6525 14.0515C10.2321 10.6348 10.7509 7.9784 11.9583 7.27181C12.2267 7.11082 12.5755 7.03927 12.9869 7.03927V5.04472C12.2356 5.04472 11.5558 5.20572 10.9655 5.54559C8.45222 6.99455 7.88874 11.5113 9.18564 17.1819C3.62238 18.8992 0 21.6451 0 24.543C0 27.4498 3.64027 30.2046 9.22142 31.9129C7.93346 37.6014 8.50589 42.1272 11.0281 43.5761C11.6095 43.916 12.2893 44.077 13.0406 44.077C15.5002 44.077 18.7201 42.3239 21.9758 39.2829C25.2314 42.306 28.4513 44.0412 30.911 44.0412C31.6623 44.0412 32.3421 43.8802 32.9324 43.5403C35.4457 42.0914 36.0091 37.5746 34.7122 31.904C40.2576 30.1957 43.88 27.4409 43.88 24.543V24.543ZM32.2347 18.5772C31.9038 19.731 31.4924 20.9206 31.0273 22.1102C30.6605 21.3946 30.2759 20.6791 29.8556 19.9636C29.4441 19.248 29.0059 18.5504 28.5676 17.8706C29.8377 18.0585 31.063 18.291 32.2347 18.5772ZM28.1383 28.1027C27.4407 29.3102 26.7251 30.455 25.9828 31.5194C24.6501 31.6357 23.2995 31.6983 21.94 31.6983C20.5894 31.6983 19.2389 31.6357 17.9151 31.5283C17.1728 30.464 16.4483 29.3281 15.7506 28.1296C15.0709 26.9579 14.4537 25.7683 13.8903 24.5698C14.4448 23.3713 15.0709 22.1728 15.7417 21.0011C16.4394 19.7936 17.1549 18.6488 17.8972 17.5844C19.2299 17.4681 20.5805 17.4055 21.94 17.4055C23.2906 17.4055 24.6411 17.4681 25.9649 17.5755C26.7072 18.6398 27.4317 19.7757 28.1294 20.9742C28.8091 22.1459 29.4263 23.3355 29.9897 24.534C29.4263 25.7325 28.8091 26.9311 28.1383 28.1027ZM31.0273 26.94C31.5102 28.1385 31.9217 29.337 32.2616 30.4998C31.0899 30.786 29.8556 31.0275 28.5766 31.2153C29.0148 30.5266 29.4531 29.82 29.8645 29.0955C30.276 28.38 30.6605 27.6555 31.0273 26.94ZM21.9579 36.4834C21.1261 35.6248 20.2943 34.6677 19.4714 33.6213C20.2764 33.6571 21.0993 33.6839 21.9311 33.6839C22.7718 33.6839 23.6036 33.666 24.4175 33.6213C23.6126 34.6677 22.7808 35.6248 21.9579 36.4834ZM15.3034 31.2153C14.0334 31.0275 12.808 30.7949 11.6363 30.5087C11.9673 29.3549 12.3787 28.1653 12.8438 26.9758C13.2105 27.6913 13.5951 28.4068 14.0155 29.1224C14.4359 29.8379 14.8652 30.5355 15.3034 31.2153ZM21.9132 12.6025C22.745 13.4612 23.5768 14.4182 24.3996 15.4647C23.5947 15.4289 22.7718 15.402 21.94 15.402C21.0993 15.402 20.2674 15.4199 19.4535 15.4647C20.2585 14.4182 21.0903 13.4612 21.9132 12.6025ZM15.2945 17.8706C14.8562 18.5593 14.418 19.2659 14.0065 19.9904C13.5951 20.7059 13.2105 21.4215 12.8438 22.137C12.3608 20.9385 11.9494 19.74 11.6095 18.5772C12.7812 18.2999 14.0155 18.0585 15.2945 17.8706V17.8706ZM7.20004 29.0687C4.03381 27.7181 1.9856 25.9472 1.9856 24.543C1.9856 23.1387 4.03381 21.3588 7.20004 20.0172C7.96924 19.6863 8.80999 19.3911 9.67757 19.1139C10.1874 20.8669 10.8582 22.6915 11.69 24.5609C10.8671 26.4212 10.2053 28.2369 9.7044 29.981C8.81893 29.7037 7.97818 29.3996 7.20004 29.0687ZM12.012 41.8499C10.7956 41.1522 10.2679 38.4958 10.6793 35.0792C10.7777 34.2384 10.9387 33.353 11.1355 32.4496C12.8885 32.8789 14.8026 33.2098 16.815 33.4245C18.0225 35.0792 19.2746 36.5818 20.5358 37.8966C17.62 40.6067 14.8831 42.0914 13.0227 42.0914C12.6202 42.0824 12.2803 42.0019 12.012 41.8499V41.8499ZM33.2275 35.0344C33.6479 38.4511 33.1291 41.1075 31.9217 41.8141C31.6533 41.9751 31.3045 42.0467 30.8931 42.0467C29.0417 42.0467 26.2958 40.5709 23.38 37.8787C24.6322 36.5639 25.8844 35.0702 27.0739 33.4156C29.0953 33.2009 31.0094 32.87 32.7624 32.4317C32.9681 33.3351 33.1291 34.2026 33.2275 35.0344V35.0344ZM36.671 29.0687C35.9018 29.3996 35.0611 29.6948 34.1935 29.9721C33.6837 28.219 33.0129 26.3944 32.1811 24.5251C33.0039 22.6647 33.6658 20.849 34.1667 19.1049C35.0521 19.3822 35.8929 19.6863 36.68 20.0172C39.8462 21.3678 41.8944 23.1387 41.8944 24.543C41.8855 25.9472 39.8372 27.7271 36.671 29.0687V29.0687Z" fill="#61DAFB"/>
<path d="M21.9311 29.092C24.1886 29.092 26.0186 27.262 26.0186 25.0046C26.0186 22.7471 24.1886 20.9171 21.9311 20.9171C19.6737 20.9171 17.8436 22.7471 17.8436 25.0046C17.8436 27.262 19.6737 29.092 21.9311 29.092Z" fill="#61DAFB"/>
</g>
<defs>
<clipPath id="clip0">
<rect width="43.88" height="50" fill="white"/>
</clipPath>
</defs>
</svg>
