<svg width="63" height="50" viewBox="0 0 63 50" fill="none" xmlns="http://www.w3.org/2000/svg">
<g clip-path="url(#clip0)">
<path fill-rule="evenodd" clip-rule="evenodd" d="M13.0336 0.00598145C9.4531 0.00598145 6.8037 3.13985 6.92234 6.53846C7.0362 9.8036 6.88827 14.0324 5.82371 17.481C4.75535 20.9393 2.94979 23.1308 0 23.4121V26.5879C2.94979 26.8698 4.75535 29.0602 5.82359 32.519C6.88827 35.9676 7.03608 40.1964 6.92222 43.4615C6.80358 46.8597 9.45297 49.994 13.0341 49.994H49.7222C53.3027 49.994 55.9516 46.8601 55.8329 43.4615C55.7191 40.1964 55.867 35.9676 56.9316 32.519C57.9999 29.0602 59.8011 26.8689 62.751 26.5879V23.4121C59.8012 23.1302 58.0001 20.9398 56.9316 17.481C55.8669 14.0329 55.7191 9.8036 55.8329 6.53846C55.9516 3.14035 53.3027 0.00598145 49.7222 0.00598145H13.0331H13.0336ZM42.5431 30.7769C42.5431 35.4566 39.0524 38.2948 33.2596 38.2948H23.3986C23.1166 38.2948 22.846 38.1827 22.6466 37.9832C22.4471 37.7838 22.3351 37.5133 22.3351 37.2312V12.7689C22.3351 12.4869 22.4471 12.2163 22.6466 12.0169C22.846 11.8174 23.1166 11.7054 23.3986 11.7054H33.2035C38.0337 11.7054 41.2038 14.3218 41.2038 18.3388C41.2038 21.1583 39.0712 23.6825 36.3544 24.1247V24.2717C40.0528 24.6774 42.5431 27.2389 42.5431 30.7769V30.7769ZM32.1844 15.0769H26.5618V23.0188H31.2974C34.9583 23.0188 36.9769 21.5447 36.9769 18.9097C36.9765 16.4404 35.2411 15.0769 32.1844 15.0769ZM26.5618 26.17V34.9221H32.3913C36.2029 34.9221 38.2219 33.3927 38.2219 30.5184C38.2219 27.6441 36.1463 26.1695 32.1462 26.1695H26.5618V26.17Z" fill="#7952B3"/>
</g>
<defs>
<clipPath id="clip0">
<rect width="62.751" height="50" fill="white"/>
</clipPath>
</defs>
</svg>
